<?xml version="1.0" encoding="UTF-8"?>
<svg width="53px" height="54px" viewBox="0 0 53 54" version="1.1" xmlns="http://www.w3.org/2000/svg" xmlns:xlink="http://www.w3.org/1999/xlink">
    <!-- Generator: Sketch 51 (57462) - http://www.bohemiancoding.com/sketch -->
    <title>icDottedPlane</title>
    <desc>Created with Sketch.</desc>
    <defs></defs>
    <g id="Page-1" stroke="none" stroke-width="1" fill="none" fill-rule="evenodd">
        <g id="Fast-Forward-Copy" transform="translate(-10.000000, -9.000000)" fill="#000000">
            <path d="M60.7733333,13.368254 C59.5737039,13.368254 58.6012121,12.390387 58.6012121,11.184127 C58.6012121,9.97786696 59.5737039,9 60.7733333,9 C61.9729628,9 62.9454545,9.97786696 62.9454545,11.184127 C62.9454545,12.390387 61.9729628,13.368254 60.7733333,13.368254 Z M55.8860606,18.2825397 C54.6864312,18.2825397 53.7139394,17.3046727 53.7139394,16.0984127 C53.7139394,14.8921527 54.6864312,13.9142857 55.8860606,13.9142857 C57.08569,13.9142857 58.0581818,14.8921527 58.0581818,16.0984127 C58.0581818,17.3046727 57.08569,18.2825397 55.8860606,18.2825397 Z M50.9987879,23.1968254 C49.7991585,23.1968254 48.8266667,22.2189584 48.8266667,21.0126984 C48.8266667,19.8064384 49.7991585,18.8285714 50.9987879,18.8285714 C52.1984173,18.8285714 53.1709091,19.8064384 53.1709091,21.0126984 C53.1709091,22.2189584 52.1984173,23.1968254 50.9987879,23.1968254 Z M50.9987879,30.0222222 C49.7991585,30.0222222 48.8266667,29.0443553 48.8266667,27.8380952 C48.8266667,26.6318352 49.7991585,25.6539683 50.9987879,25.6539683 C52.1984173,25.6539683 53.1709091,26.6318352 53.1709091,27.8380952 C53.1709091,29.0443553 52.1984173,30.0222222 50.9987879,30.0222222 Z M50.9987879,36.5746032 C49.7991585,36.5746032 48.8266667,35.5967362 48.8266667,34.3904762 C48.8266667,33.1842162 49.7991585,32.2063492 50.9987879,32.2063492 C52.1984173,32.2063492 53.1709091,33.1842162 53.1709091,34.3904762 C53.1709091,35.5967362 52.1984173,36.5746032 50.9987879,36.5746032 Z M50.9987879,43.1269841 C49.7991585,43.1269841 48.8266667,42.1491172 48.8266667,40.9428571 C48.8266667,39.7365971 49.7991585,38.7587302 50.9987879,38.7587302 C52.1984173,38.7587302 53.1709091,39.7365971 53.1709091,40.9428571 C53.1709091,42.1491172 52.1984173,43.1269841 50.9987879,43.1269841 Z M50.9987879,49.6793651 C49.7991585,49.6793651 48.8266667,48.7014981 48.8266667,47.4952381 C48.8266667,46.2889781 49.7991585,45.3111111 50.9987879,45.3111111 C52.1984173,45.3111111 53.1709091,46.2889781 53.1709091,47.4952381 C53.1709091,48.7014981 52.1984173,49.6793651 50.9987879,49.6793651 Z M44.2109091,23.1968254 C43.0112797,23.1968254 42.0387879,22.2189584 42.0387879,21.0126984 C42.0387879,19.8064384 43.0112797,18.8285714 44.2109091,18.8285714 C45.4105385,18.8285714 46.3830303,19.8064384 46.3830303,21.0126984 C46.3830303,22.2189584 45.4105385,23.1968254 44.2109091,23.1968254 Z M37.6945455,23.1968254 C36.494916,23.1968254 35.5224242,22.2189584 35.5224242,21.0126984 C35.5224242,19.8064384 36.494916,18.8285714 37.6945455,18.8285714 C38.8941749,18.8285714 39.8666667,19.8064384 39.8666667,21.0126984 C39.8666667,22.2189584 38.8941749,23.1968254 37.6945455,23.1968254 Z M30.9066667,23.1968254 C29.7070372,23.1968254 28.7345455,22.2189584 28.7345455,21.0126984 C28.7345455,19.8064384 29.7070372,18.8285714 30.9066667,18.8285714 C32.1062961,18.8285714 33.0787879,19.8064384 33.0787879,21.0126984 C33.0787879,22.2189584 32.1062961,23.1968254 30.9066667,23.1968254 Z M24.390303,23.1968254 C23.1906736,23.1968254 22.2181818,22.2189584 22.2181818,21.0126984 C22.2181818,19.8064384 23.1906736,18.8285714 24.390303,18.8285714 C25.5899325,18.8285714 26.5624242,19.8064384 26.5624242,21.0126984 C26.5624242,22.2189584 25.5899325,23.1968254 24.390303,23.1968254 Z M44.4824242,29.7492063 C43.2827948,29.7492063 42.310303,28.7713394 42.310303,27.5650794 C42.310303,26.3588193 43.2827948,25.3809524 44.4824242,25.3809524 C45.6820537,25.3809524 46.6545455,26.3588193 46.6545455,27.5650794 C46.6545455,28.7713394 45.6820537,29.7492063 44.4824242,29.7492063 Z M39.5951515,34.6634921 C38.3955221,34.6634921 37.4230303,33.6856251 37.4230303,32.4793651 C37.4230303,31.2731051 38.3955221,30.2952381 39.5951515,30.2952381 C40.7947809,30.2952381 41.7672727,31.2731051 41.7672727,32.4793651 C41.7672727,33.6856251 40.7947809,34.6634921 39.5951515,34.6634921 Z M34.9793939,39.3047619 C33.7797645,39.3047619 32.8072727,38.3268949 32.8072727,37.1206349 C32.8072727,35.9143749 33.7797645,34.9365079 34.9793939,34.9365079 C36.1790234,34.9365079 37.1515152,35.9143749 37.1515152,37.1206349 C37.1515152,38.3268949 36.1790234,39.3047619 34.9793939,39.3047619 Z M30.3636364,43.9460317 C29.1640069,43.9460317 28.1915152,42.9681648 28.1915152,41.7619048 C28.1915152,40.5556447 29.1640069,39.5777778 30.3636364,39.5777778 C31.5632658,39.5777778 32.5357576,40.5556447 32.5357576,41.7619048 C32.5357576,42.9681648 31.5632658,43.9460317 30.3636364,43.9460317 Z M25.4763636,48.8603175 C24.2767342,48.8603175 23.3042424,47.8824505 23.3042424,46.6761905 C23.3042424,45.4699305 24.2767342,44.4920635 25.4763636,44.4920635 C26.6759931,44.4920635 27.6484848,45.4699305 27.6484848,46.6761905 C27.6484848,47.8824505 26.6759931,48.8603175 25.4763636,48.8603175 Z M18.6884848,48.8603175 C17.4888554,48.8603175 16.5163636,47.8824505 16.5163636,46.6761905 C16.5163636,45.4699305 17.4888554,44.4920635 18.6884848,44.4920635 C19.8881143,44.4920635 20.8606061,45.4699305 20.8606061,46.6761905 C20.8606061,47.8824505 19.8881143,48.8603175 18.6884848,48.8603175 Z M12.1721212,48.8603175 C10.9724918,48.8603175 10,47.8824505 10,46.6761905 C10,45.4699305 10.9724918,44.4920635 12.1721212,44.4920635 C13.3717506,44.4920635 14.3442424,45.4699305 14.3442424,46.6761905 C14.3442424,47.8824505 13.3717506,48.8603175 12.1721212,48.8603175 Z M25.7478788,55.4126984 C24.5482494,55.4126984 23.5757576,54.4348315 23.5757576,53.2285714 C23.5757576,52.0223114 24.5482494,51.0444444 25.7478788,51.0444444 C26.9475082,51.0444444 27.92,52.0223114 27.92,53.2285714 C27.92,54.4348315 26.9475082,55.4126984 25.7478788,55.4126984 Z M25.7478788,62.2380952 C24.5482494,62.2380952 23.5757576,61.2602283 23.5757576,60.0539683 C23.5757576,58.8477082 24.5482494,57.8698413 25.7478788,57.8698413 C26.9475082,57.8698413 27.92,58.8477082 27.92,60.0539683 C27.92,61.2602283 26.9475082,62.2380952 25.7478788,62.2380952 Z" id="icDottedPlane"></path>
        </g>
    </g>
</svg>